# xmcd
#
# Track frame offsets:
#	150
#	26814
#	48713
#	73752
#	115716
#	164933
#	186820
#	204878
#	229167
#	248768
#	288450
#
# Disc length: 4071 seconds
#
# Revision: 1
# Processed by: cddbd v1.5.1PL2 Copyright (c) Steve Scherf et al.
# Submitted via: EasyCDDAExtractor 9.0.0.1
#
DISCID=a40fe50b
DTITLE=Ozzy Osbourne - Madison Square Garden New York City 05-04-82 Source 2
DYEAR=1982
DGENRE=Hard Rock
TTITLE0=Over The Mountain
TTITLE1=Mr Crowley
TTITLE2=Crazy Train
TTITLE3=Revelation (Mother Earth) - Steal Away (The Night)
TTITLE4=Suicide Solution Incl Guitar and Drum Solo
TTITLE5=Goodbye To Romance
TTITLE6=I Don't Know
TTITLE7=Believer
TTITLE8=Flying High Again
TTITLE9=Iron Man - Children Of The Grave
TTITLE10=Paranoid
EXTD=
EXTT0=
EXTT1=
EXTT2=
EXTT3=
EXTT4=
EXTT5=
EXTT6=
EXTT7=
EXTT8=
EXTT9=
EXTT10=
PLAYORDER=
